<svg width="100" height="6" viewBox="0 0 100 6" fill="none" xmlns="http://www.w3.org/2000/svg">
<path d="M99.9994 2.5215C97.9226 1.91084 95.8152 1.48991 93.6928 1.2618C86.4711 0.31102 79.1777 0.146954 71.8855 0.0901313C57.117 -0.0251148 42.3448 -0.175575 27.5954 0.670363C19.6761 1.12014 11.7629 1.63475 3.9059 2.58633C3.0315 2.65661 2.16329 2.82287 1.3106 3.08333C0.288546 3.44107 -0.197764 4.19577 0.0747425 4.93927C0.360844 5.72038 1.32049 6.16216 2.43338 5.94527C7.12284 5.03691 11.9254 4.82483 16.6952 4.42466C33.59 3.0017 50.5422 2.95608 67.5013 3.06892C75.716 3.12334 83.932 3.22899 92.1437 2.90886C94.755 2.80482 97.3577 2.57993 100 2.52631" fill="#FF6600"/>
</svg>
